<svg width="86" height="66" viewBox="0 0 86 66" fill="none" xmlns="http://www.w3.org/2000/svg">
<path d="M30.0256 40.05L26.3151 36.35C27.3179 35.05 28.0199 33.35 28.0199 31.45C28.0199 27.05 24.4097 23.45 19.9972 23.45C15.5847 23.45 11.9745 27.15 11.9745 31.55C11.9745 35.95 15.5847 39.55 19.9972 39.55C21.8023 39.55 23.5071 38.95 24.9111 37.85L28.6216 41.55L30.0256 40.05ZM19.9972 37.55C16.6878 37.55 13.9802 34.85 13.9802 31.55C13.9802 28.25 16.6878 25.55 19.9972 25.55C23.3066 25.55 26.0142 28.25 26.0142 31.55C26.0142 34.85 23.3066 37.55 19.9972 37.55Z" fill="black"/>
<path d="M62.4438 41C62.143 41 61.8421 40.9 61.6415 40.6C56.2262 34.5 54.9225 33.1 54.6217 32.7C53.9197 31.8 53.5186 30.6 53.5186 29.4C53.5186 26.4 55.9254 24 59.0342 24C60.3379 24 61.5413 24.5 62.5441 25.3C63.5469 24.5 64.8506 24 66.054 24C69.0625 24 71.5696 26.4 71.5696 29.4C71.5696 30.7 71.0682 31.9 70.266 32.8L63.2461 40.7C63.0455 40.9 62.845 41 62.4438 41ZM56.4268 31.5C56.7276 31.9 59.9367 35.5 62.5441 38.4L68.7617 31.4C69.2631 30.9 69.4637 30.2 69.4637 29.4C69.4637 27.6 67.9594 26.1 66.1543 26.1C65.1515 26.1 64.1486 26.6 63.4467 27.4C63.1458 27.7 62.845 27.8 62.5441 27.8C62.2432 27.8 61.9424 27.6 61.7418 27.4C61.0398 26.6 60.037 26.1 59.0342 26.1C57.2291 26.1 55.7248 27.6 55.7248 29.4C55.6245 30.3 56.0257 31 56.4268 31.5C56.3265 31.5 56.3265 31.5 56.4268 31.5Z" fill="black"/>
<rect x="66" y="15" width="20" height="20" rx="10" fill="#7DB54F"/>
<path d="M72.1309 26.76H73.5309V21.92L73.6309 21.33L73.2309 21.8L72.1309 22.59L71.7509 22.08L73.9509 20.38H74.3109V26.76H75.6809V27.5H72.1309V26.76ZM79.9601 22.09C79.9601 22.4433 79.8934 22.8067 79.7601 23.18C79.6334 23.5467 79.4634 23.9167 79.2501 24.29C79.0434 24.6633 78.8101 25.03 78.5501 25.39C78.2901 25.7433 78.0301 26.08 77.7701 26.4L77.2801 26.83V26.87L77.9201 26.76H80.1001V27.5H76.1201V27.21C76.2668 27.0567 76.4434 26.8667 76.6501 26.64C76.8568 26.4133 77.0701 26.1633 77.2901 25.89C77.5168 25.61 77.7368 25.3167 77.9501 25.01C78.1701 24.6967 78.3668 24.38 78.5401 24.06C78.7201 23.74 78.8634 23.4233 78.9701 23.11C79.0768 22.7967 79.1301 22.5 79.1301 22.22C79.1301 21.8933 79.0368 21.6233 78.8501 21.41C78.6634 21.19 78.3801 21.08 78.0001 21.08C77.7468 21.08 77.5001 21.1333 77.2601 21.24C77.0201 21.34 76.8134 21.4567 76.6401 21.59L76.3101 21.02C76.5434 20.82 76.8201 20.6633 77.1401 20.55C77.4601 20.4367 77.8034 20.38 78.1701 20.38C78.4568 20.38 78.7101 20.4233 78.9301 20.51C79.1501 20.59 79.3368 20.7067 79.4901 20.86C79.6434 21.0133 79.7601 21.1967 79.8401 21.41C79.9201 21.6167 79.9601 21.8433 79.9601 22.09Z" fill="white"/>
</svg>
