<svg width="107" height="18" viewBox="0 0 107 18" fill="none" xmlns="http://www.w3.org/2000/svg">
<g clip-path="url(#clip0_1_477)">
<path d="M104 1H89.9C88.2 1 87 2.5 87 4.2V13.7C87 15.5 88.2 17 89.9 17H104.2C105.7 17 107.1 15.5 107.1 13.8V4.2C106.9 2.5 105.7 1 104 1ZM94 12.8V5.2L100.7 9L94 12.8Z" fill="#83B3D3"/>
</g>
<path d="M54 0C51.8 0 50 1.8 50 4V6H47V10H50V18H54V10H57V6H54V4H57V0H54Z" fill="#83B3D3"/>
<g clip-path="url(#clip1_1_477)">
<path d="M11.6 1.19999C13.4 0.699995 14.8 1.49999 15.4 2.39999C16.1 2.19999 16.8 1.89999 17.5 1.69999C17.5 2.59999 16.9 3.19999 16.6 3.49999C17.3 3.59999 18 2.89999 18 2.89999C17.8 3.89999 16.9 4.7 16.3 4.9C16.1 11.7 13 16.1 5.7 16C5.1 16 5.8 16 5.2 16C4.8 16 0.8 15.5 0 14.1C2.4 14.3 4.1 13.7 5 12.9C4 12.6 2.1 12.5 1.8 10C2.2 10.1 2.4 10.2 3.1 10.1C1.8 9.3 0.4 8.49999 0.5 6.29999C0.8 6.59999 1.6 6.79999 1.9 6.79999C1.1 6.59999 -0.2 3.49999 0.9 1.89999C2.8 3.79999 4.9 5.49999 8.5 5.69999C8.7 3.29999 9.7 1.79999 11.6 1.19999Z" fill="#83B3D3"/>
</g>
<defs>
<clipPath id="clip0_1_477">
<rect width="20" height="16" fill="white" transform="translate(87 1)"/>
</clipPath>
<clipPath id="clip1_1_477">
<rect width="18" height="15" fill="white" transform="translate(0 1)"/>
</clipPath>
</defs>
</svg>
